<?xml version="1.0" encoding="UTF-8"?>
<!-- Caixa amb encaix 80.0x80.0x50.0 mm, gruix 3.0 mm. TALL=vermell 0.1mm. Generat per generador_caixa_encaix.py (Aula Maker). -->
<svg xmlns="http://www.w3.org/2000/svg" width="536.0mm" height="96.0mm" viewBox="0 0 536.0 96.0">
<g transform="translate(8.00,8.00)"><path d="M 0.00,0.00 L 11.43,0.00 L 11.43,3.00 L 22.86,3.00 L 22.86,0.00 L 34.29,0.00 L 34.29,3.00 L 45.71,3.00 L 45.71,0.00 L 57.14,0.00 L 57.14,3.00 L 68.57,3.00 L 68.57,0.00 L 80.00,0.00 L 80.00,0.00 L 80.00,11.43 L 77.00,11.43 L 77.00,22.86 L 80.00,22.86 L 80.00,34.29 L 77.00,34.29 L 77.00,45.71 L 80.00,45.71 L 80.00,57.14 L 77.00,57.14 L 77.00,68.57 L 80.00,68.57 L 80.00,80.00 L 80.00,80.00 L 68.57,80.00 L 68.57,83.00 L 57.14,83.00 L 57.14,80.00 L 45.71,80.00 L 45.71,83.00 L 34.29,83.00 L 34.29,80.00 L 22.86,80.00 L 22.86,83.00 L 11.43,83.00 L 11.43,80.00 L 0.00,80.00 L 80.00,0.00 L 68.57,0.00 L 68.57,-3.00 L 57.14,-3.00 L 57.14,0.00 L 45.71,0.00 L 45.71,-3.00 L 34.29,-3.00 L 34.29,0.00 L 22.86,0.00 L 22.86,-3.00 L 11.43,-3.00 L 11.43,0.00 L 0.00,0.00 Z" fill="none" stroke="#FF0000" stroke-width="0.1"/><text x="40.0" y="40.0" font-family="sans-serif" font-size="4" fill="#cccccc" text-anchor="middle">Base</text></g>
<g transform="translate(96.00,8.00)"><path d="M 0.00,0.00 L 11.43,0.00 L 11.43,3.00 L 22.86,3.00 L 22.86,0.00 L 34.29,0.00 L 34.29,3.00 L 45.71,3.00 L 45.71,0.00 L 57.14,0.00 L 57.14,3.00 L 68.57,3.00 L 68.57,0.00 L 80.00,0.00 L 80.00,0.00 L 80.00,11.43 L 77.00,11.43 L 77.00,22.86 L 80.00,22.86 L 80.00,34.29 L 77.00,34.29 L 77.00,45.71 L 80.00,45.71 L 80.00,57.14 L 77.00,57.14 L 77.00,68.57 L 80.00,68.57 L 80.00,80.00 L 80.00,80.00 L 68.57,80.00 L 68.57,83.00 L 57.14,83.00 L 57.14,80.00 L 45.71,80.00 L 45.71,83.00 L 34.29,83.00 L 34.29,80.00 L 22.86,80.00 L 22.86,83.00 L 11.43,83.00 L 11.43,80.00 L 0.00,80.00 L 80.00,0.00 L 68.57,0.00 L 68.57,-3.00 L 57.14,-3.00 L 57.14,0.00 L 45.71,0.00 L 45.71,-3.00 L 34.29,-3.00 L 34.29,0.00 L 22.86,0.00 L 22.86,-3.00 L 11.43,-3.00 L 11.43,0.00 L 0.00,0.00 Z" fill="none" stroke="#FF0000" stroke-width="0.1"/><text x="40.0" y="40.0" font-family="sans-serif" font-size="4" fill="#cccccc" text-anchor="middle">Tapa</text></g>
<g transform="translate(184.00,8.00)"><path d="M 0.00,0.00 L 80.00,0.00 L 80.00,0.00 L 80.00,10.00 L 77.00,10.00 L 77.00,20.00 L 80.00,20.00 L 80.00,30.00 L 77.00,30.00 L 77.00,40.00 L 80.00,40.00 L 80.00,50.00 L 0.00,130.00 L 0.00,118.57 L -3.00,118.57 L -3.00,107.14 L 0.00,107.14 L 0.00,95.71 L -3.00,95.71 L -3.00,84.29 L 0.00,84.29 L 0.00,72.86 L -3.00,72.86 L -3.00,61.43 L 0.00,61.43 L 0.00,50.00 L 50.00,0.00 L 40.00,0.00 L 40.00,-3.00 L 30.00,-3.00 L 30.00,0.00 L 20.00,0.00 L 20.00,-3.00 L 10.00,-3.00 L 10.00,0.00 L 0.00,0.00 Z" fill="none" stroke="#FF0000" stroke-width="0.1"/><text x="40.0" y="25.0" font-family="sans-serif" font-size="4" fill="#cccccc" text-anchor="middle">Frontal</text></g>
<g transform="translate(272.00,8.00)"><path d="M 0.00,0.00 L 80.00,0.00 L 80.00,0.00 L 80.00,10.00 L 77.00,10.00 L 77.00,20.00 L 80.00,20.00 L 80.00,30.00 L 77.00,30.00 L 77.00,40.00 L 80.00,40.00 L 80.00,50.00 L 0.00,130.00 L 0.00,118.57 L -3.00,118.57 L -3.00,107.14 L 0.00,107.14 L 0.00,95.71 L -3.00,95.71 L -3.00,84.29 L 0.00,84.29 L 0.00,72.86 L -3.00,72.86 L -3.00,61.43 L 0.00,61.43 L 0.00,50.00 L 50.00,0.00 L 40.00,0.00 L 40.00,-3.00 L 30.00,-3.00 L 30.00,0.00 L 20.00,0.00 L 20.00,-3.00 L 10.00,-3.00 L 10.00,0.00 L 0.00,0.00 Z" fill="none" stroke="#FF0000" stroke-width="0.1"/><text x="40.0" y="25.0" font-family="sans-serif" font-size="4" fill="#cccccc" text-anchor="middle">Posterior</text></g>
<g transform="translate(360.00,8.00)"><path d="M 0.00,0.00 L 80.00,0.00 L 80.00,0.00 L 80.00,10.00 L 83.00,10.00 L 83.00,20.00 L 80.00,20.00 L 80.00,30.00 L 83.00,30.00 L 83.00,40.00 L 80.00,40.00 L 80.00,50.00 L 0.00,130.00 L 0.00,118.57 L -3.00,118.57 L -3.00,107.14 L 0.00,107.14 L 0.00,95.71 L -3.00,95.71 L -3.00,84.29 L 0.00,84.29 L 0.00,72.86 L -3.00,72.86 L -3.00,61.43 L 0.00,61.43 L 0.00,50.00 L 0.00,50.00 L 0.00,40.00 L 3.00,40.00 L 3.00,30.00 L 0.00,30.00 L 0.00,20.00 L 3.00,20.00 L 3.00,10.00 L 0.00,10.00 L 0.00,0.00 Z" fill="none" stroke="#FF0000" stroke-width="0.1"/><text x="40.0" y="25.0" font-family="sans-serif" font-size="4" fill="#cccccc" text-anchor="middle">Lateral1</text></g>
<g transform="translate(448.00,8.00)"><path d="M 0.00,0.00 L 80.00,0.00 L 80.00,0.00 L 80.00,10.00 L 83.00,10.00 L 83.00,20.00 L 80.00,20.00 L 80.00,30.00 L 83.00,30.00 L 83.00,40.00 L 80.00,40.00 L 80.00,50.00 L 0.00,130.00 L 0.00,118.57 L -3.00,118.57 L -3.00,107.14 L 0.00,107.14 L 0.00,95.71 L -3.00,95.71 L -3.00,84.29 L 0.00,84.29 L 0.00,72.86 L -3.00,72.86 L -3.00,61.43 L 0.00,61.43 L 0.00,50.00 L 0.00,50.00 L 0.00,40.00 L 3.00,40.00 L 3.00,30.00 L 0.00,30.00 L 0.00,20.00 L 3.00,20.00 L 3.00,10.00 L 0.00,10.00 L 0.00,0.00 Z" fill="none" stroke="#FF0000" stroke-width="0.1"/><text x="40.0" y="25.0" font-family="sans-serif" font-size="4" fill="#cccccc" text-anchor="middle">Lateral2</text></g>
</svg>
